<?xml version="1.0" encoding="UTF-8"?> <!-- Generator: Adobe Illustrator 24.3.0, SVG Export Plug-In . SVG Version: 6.00 Build 0) --> <svg xmlns="http://www.w3.org/2000/svg" xmlns:xlink="http://www.w3.org/1999/xlink" version="1.1" id="Layer_1" x="0px" y="0px" viewBox="0 0 34.4 34.4" style="enable-background:new 0 0 34.4 34.4;" xml:space="preserve"> <style type="text/css"> .st0{fill:#FFCC20;} .st1{fill-rule:evenodd;clip-rule:evenodd;stroke:#000000;stroke-width:0.4;} .st2{filter:url(#Adobe_OpacityMaskFilter);} .st3{fill-rule:evenodd;clip-rule:evenodd;fill:#FFFFFF;} .st4{mask:url(#mask-2_2_);fill-rule:evenodd;clip-rule:evenodd;stroke:#000000;stroke-width:0.4;} .st5{filter:url(#Adobe_OpacityMaskFilter_1_);} .st6{mask:url(#mask-2_3_);} .st7{filter:url(#Adobe_OpacityMaskFilter_2_);} .st8{mask:url(#mask-2_5_);} .st9{fill:none;stroke:#000000;stroke-width:2;} .st10{filter:url(#Adobe_OpacityMaskFilter_3_);} .st11{mask:url(#mask-2_4_);fill:none;stroke:#000000;stroke-width:2;} .st12{filter:url(#Adobe_OpacityMaskFilter_4_);} .st13{mask:url(#mask-2_1_);fill:none;stroke:#000000;stroke-width:2;} .st14{filter:url(#Adobe_OpacityMaskFilter_5_);} .st15{mask:url(#mask-2_8_);fill-rule:evenodd;clip-rule:evenodd;stroke:#000000;stroke-width:0.4;} .st16{filter:url(#Adobe_OpacityMaskFilter_6_);} .st17{mask:url(#mask-2_7_);} .st18{filter:url(#Adobe_OpacityMaskFilter_7_);} .st19{mask:url(#mask-2_6_);} </style> <g> <path d="M29.2,11.4c-0.5,0-0.9,0.4-0.9,0.9v19.1c0,0.7-0.5,1.2-1.2,1.2H3c-0.7,0-1.2-0.5-1.2-1.2V5.9c0-0.7,0.5-1.2,1.2-1.2h20.5 c0.5,0,0.9-0.4,0.9-0.9c0-0.5-0.4-0.9-0.9-0.9H3c-1.7,0-3,1.4-3,3v25.5c0,1.7,1.4,3,3,3h24.1c1.7,0,3-1.4,3-3V12.3 C30.2,11.8,29.7,11.4,29.2,11.4z"></path> <path d="M34.1,2.4L32,0.3c-0.4-0.4-0.9-0.4-1.3,0l-17,17c0,0-0.1,0.1-0.1,0.1c-0.1,0.1-0.1,0.1-2.2,4.4c-0.2,0.3-0.1,0.8,0.2,1 c0.2,0.2,0.4,0.3,0.6,0.3c0.1,0,0.3,0,0.4-0.1c4.3-2.1,4.3-2.1,4.4-2.2c0,0,0.1-0.1,0.1-0.1l17-17c0.2-0.2,0.3-0.4,0.3-0.6 C34.4,2.8,34.3,2.6,34.1,2.4z M30.1,5.2L15.9,19.3c-0.3,0.1-0.9,0.5-1.7,0.8c0.4-0.8,0.7-1.4,0.8-1.7L29.2,4.3L30.1,5.2z M32.2,3 l-0.8,0.8L30.5,3l0.8-0.8L32.2,3z"></path> </g> </svg> 